<svg viewBox="0 0 32 32" class="valign-middle absoluteCenter" preserveAspectRatio="xMidYMid meet" aria-hidden="true" focusable="false" width="32px" height="32px" xmlns="http://www.w3.org/2000/svg">
<path d="M16,0C7.2,0,0,7.2,0,16c0,8.8,7.2,16,16,16c8.8,0,16-7.2,16-16C32,7.2,24.8,0,16,0z M10.6,8.3c1,0,2.1,1,2.1,2
	c0,1.4-0.9,2.1-2,2.1c-1.3,0-2-0.8-2.1-2C8.5,9.2,9.4,8.4,10.6,8.3z M12.2,14.4v8.3c0,0.1,0,0.3,0,0.4c0,0.4-0.2,0.6-0.6,0.6
	c-0.6,0-1.3,0-1.9,0c-0.5,0-0.6-0.2-0.6-0.7c0-1.3,0-2.5,0-3.8v-4.8c0-0.2,0-0.4,0-0.6c0-0.3,0.2-0.5,0.5-0.5c0.7,0,1.3,0,2,0
	c0.4,0,0.6,0.2,0.6,0.6C12.2,14.2,12.2,14.3,12.2,14.4z M13.7,14.5c0-0.2,0-0.3,0-0.5c0-0.4,0.2-0.6,0.6-0.6c0.7,0,1.4,0,2.1,0
	c0.4,0,0.5,0.2,0.6,0.7c0,0.1,0.1,0.3,0.1,0.4c0.1-0.1,0.2-0.1,0.3-0.2c0.9-1.2,3.5-1.4,5-0.4c0.5,0.4,0.8,0.9,1.1,1.5
	c0.2,0.6,0.4,1.3,0.4,2c0,0.9,0,1.8,0,2.6c0,1,0,1.9,0,2.9c0,0.7-0.1,0.8-0.8,0.8c-0.5,0-1,0-1.5,0c-0.9,0-1-0.1-1-1
	c0-1.5,0-3.1,0-4.6c0-0.4-0.1-0.8-0.2-1.1c-0.2-0.7-0.8-1-1.5-1c-0.7-0.1-1.2,0.3-1.5,0.9c-0.2,0.4-0.3,0.9-0.3,1.4
	c0,1.4,0,2.8,0,4.2c0,0.2,0,0.4,0,0.6c0,0.4-0.2,0.6-0.6,0.6c-0.7,0-1.3,0-2,0c-0.4,0-0.6-0.2-0.6-0.6c0-0.2,0-0.3,0-0.5V14.5z"/>
</svg>
